<svg width="100" height="23" viewBox="0 0 100 23" fill="none" xmlns="http://www.w3.org/2000/svg">
<rect width="100" height="23" fill="black" fill-opacity="0"/>
<path d="M1.50435 22.0803H0V22.606H4.75059V22.0803H2.48614L3.71074 18.5369L2.97176 18.0795L1.50435 22.0803Z" fill="#2C2C2C"/>
<path d="M20.1583 22.0803L12.1773 0H9.58033L7.88068 4.75777L11.1639 15.2459H11.1955L13.5075 22.0803H11.0847V22.606H21.6416V22.0803H20.1583Z" fill="#2C2C2C"/>
<path d="M31.4648 12.5332C30.9017 12.5332 30.4073 12.896 29.9815 13.6215C29.5392 14.4128 29.3187 15.3079 29.3429 16.2132V22.3011H30.9633V22.7111H23.8427V22.3011H25.099V12.3124H23.8427V11.9023H29.3429V14.0841C29.5001 13.3747 29.9039 12.7435 30.483 12.3019C31.0349 11.8886 31.7086 11.6686 32.3991 11.6762C33.0375 11.6492 33.6622 11.8654 34.1462 12.2808C34.3766 12.4986 34.5565 12.7638 34.6732 13.0581C34.7899 13.3523 34.8406 13.6684 34.8219 13.9842C34.8548 14.5932 34.6676 15.1937 34.294 15.677C34.0979 15.8839 33.8575 16.0444 33.5907 16.1463C33.3239 16.2482 33.0375 16.289 32.7527 16.2658C32.4605 16.2884 32.1673 16.2378 31.8999 16.1184C31.6325 15.999 31.3994 15.8147 31.222 15.5824C31.0576 15.2924 30.9647 14.9677 30.9509 14.635C30.9372 14.3023 31.0029 13.9712 31.1428 13.6687H31.9662C32.3287 12.9117 32.1615 12.5332 31.4648 12.5332Z" fill="#2C2C2C"/>
<path d="M36.2787 19.4517V12.2913H35.0224V11.8813H36.2787V8.94777L40.5014 7.89633V11.8707H43.4679V12.2808H40.5014V19.9774C40.4721 20.512 40.5456 21.0473 40.7179 21.5545C40.7916 21.7271 40.9192 21.8715 41.0818 21.9662C41.2444 22.0609 41.4332 22.1009 41.6204 22.0803C41.8609 22.0721 42.0958 22.0056 42.3046 21.8865C42.5134 21.7673 42.6899 21.5993 42.8187 21.3968C43.1986 20.8435 43.4312 20.2032 43.4943 19.5358L43.8796 19.5831C43.8127 20.4956 43.4622 21.3647 42.8767 22.0697C42.3278 22.6831 41.4234 22.9897 40.1636 22.9897C39.1416 23.0569 38.1251 22.7932 37.2657 22.238C36.6077 21.7088 36.2787 20.78 36.2787 19.4517Z" fill="#2C2C2C"/>
<path d="M51.7286 12.5332C51.1656 12.5332 50.6712 12.896 50.2454 13.6215C49.8031 14.4128 49.5825 15.3079 49.6067 16.2132V22.3011H51.2272V22.7111H44.1277V22.3011H45.3945V12.3124H44.1277V11.9023H49.6173V14.0841C49.7749 13.3749 50.1786 12.7438 50.7574 12.3019C51.3093 11.8886 51.983 11.6686 52.6735 11.6762C53.3119 11.6492 53.9366 11.8654 54.4206 12.2808C54.6498 12.4993 54.8285 12.7648 54.9443 13.059C55.06 13.3531 55.1101 13.6688 55.091 13.9842C55.124 14.5932 54.9367 15.1937 54.5632 15.677C54.367 15.8839 54.1267 16.0444 53.8599 16.1463C53.5931 16.2482 53.3067 16.289 53.0219 16.2658C52.7297 16.2884 52.4365 16.2378 52.1691 16.1184C51.9016 15.999 51.6685 15.8147 51.4911 15.5824C51.3235 15.2995 51.2247 14.9815 51.2027 14.6537C51.1807 14.326 51.2361 13.9976 51.3644 13.6951H52.1879C52.5855 12.9205 52.4324 12.5332 51.7286 12.5332Z" fill="#2C2C2C"/>
<path d="M56.9491 21.4862C55.9743 20.5154 55.4869 19.1257 55.4869 17.3172C55.4869 15.5087 56.0148 14.1068 57.0705 13.1114C58.1262 12.1336 59.59 11.6447 61.4621 11.6447C63.3342 11.6447 64.7418 12.0951 65.6849 12.9958C66.6139 13.8965 67.0784 15.2705 67.0784 17.1175C67.0784 20.9728 65.143 22.9004 61.2721 22.9004C59.3613 22.9284 57.9203 22.457 56.9491 21.4862ZM62.6762 18.2372V16.2973C62.7099 15.2195 62.6303 14.1412 62.4386 13.0799C62.416 12.8034 62.2891 12.5456 62.0835 12.3583C61.8779 12.1711 61.6088 12.0683 61.3302 12.0705C61.0324 12.0562 60.7409 12.1581 60.5173 12.3544C60.277 12.616 60.1223 12.9442 60.0739 13.2955C59.9114 14.3246 59.8425 15.3662 59.868 16.4077V18.1794C59.825 19.1737 59.8745 20.1698 60.0158 21.155C60.0939 21.4366 60.1964 21.7111 60.322 21.9751C60.4117 22.1526 60.554 22.2982 60.7296 22.3922C60.9053 22.4863 61.1057 22.5242 61.3038 22.5009C61.5899 22.5015 61.8663 22.3975 62.0804 22.2085C62.2945 22.0195 62.4314 21.7586 62.465 21.4757C62.6475 20.4063 62.7182 19.3211 62.6762 18.2372V18.2372Z" fill="#2C2C2C"/>
<path d="M69.3375 21.4862C68.3628 20.5154 67.8754 19.1257 67.8754 17.3172C67.8754 15.5087 68.4033 14.1068 69.459 13.1114C70.5146 12.1336 71.9785 11.6447 73.8506 11.6447C75.7227 11.6447 77.1303 12.0951 78.0733 12.9958C79.0023 13.8965 79.4669 15.2705 79.4669 17.1175C79.4669 20.9728 77.5314 22.9004 73.6606 22.9004C71.7498 22.9284 70.3088 22.457 69.3375 21.4862ZM75.0647 18.2372V16.2973C75.0984 15.2195 75.0188 14.1412 74.8271 13.0799C74.8045 12.8034 74.6776 12.5456 74.472 12.3583C74.2663 12.1711 73.9972 12.0683 73.7186 12.0705C73.4209 12.0562 73.1293 12.1581 72.9058 12.3544C72.6654 12.616 72.5108 12.9442 72.4624 13.2955C72.2999 14.3246 72.231 15.3662 72.2565 16.4077V18.1794C72.2135 19.1737 72.2629 20.1698 72.4043 21.155C72.4824 21.4366 72.5848 21.7111 72.7105 21.9751C72.8001 22.1526 72.9425 22.2982 73.1181 22.3922C73.2938 22.4863 73.4942 22.5242 73.6922 22.5009C73.9783 22.5015 74.2547 22.3975 74.4688 22.2085C74.6829 22.0195 74.8198 21.7586 74.8535 21.4757C75.036 20.4063 75.1067 19.3211 75.0647 18.2372V18.2372Z" fill="#2C2C2C"/>
<path d="M80.0844 11.8971H85.5846V14C86.0878 12.4543 87.1945 11.6815 88.9047 11.6815C90.6149 11.6815 91.653 12.4999 92.019 14.1367C92.1996 13.4007 92.6344 12.7515 93.2471 12.3027C93.8599 11.8538 94.6117 11.6339 95.3708 11.6815C97.6053 11.6815 98.7226 12.9467 98.7226 15.4772V22.3116H100V22.7216H93.6659V22.3116H94.484V14.9515C94.484 13.8019 94.3855 13.1272 94.1884 12.9275C94.1403 12.8812 94.0832 12.8452 94.0205 12.8216C93.9579 12.7981 93.8911 12.7876 93.8242 12.7908C93.5675 12.8187 93.3234 12.9163 93.1186 13.073C92.9139 13.2297 92.7562 13.4394 92.663 13.6793C92.2948 14.3713 92.1129 15.1465 92.1351 15.9294V22.3379H92.9586V22.748H87.0942V22.3379H87.8913V14.9778C87.8913 13.8282 87.7927 13.1536 87.5957 12.9538C87.5475 12.9075 87.4904 12.8715 87.4278 12.848C87.3651 12.8245 87.2983 12.8139 87.2315 12.8171C86.8057 12.8171 86.4221 13.1395 86.0808 13.7844C85.7169 14.4987 85.5356 15.2915 85.5529 16.0923V22.3642H86.3764V22.7742H80.0422V22.3642H81.2985V12.3755H80.0422V11.9654L80.0844 11.8971Z" fill="#2C2C2C"/>
</svg>



